<?xml version="1.0" standalone="no"?>
<!DOCTYPE svg PUBLIC "-//W3C//DTD SVG 20010904//EN"
 "http://www.w3.org/TR/2001/REC-SVG-20010904/DTD/svg10.dtd">
<svg version="1.0" xmlns="http://www.w3.org/2000/svg"
 width="800.000000pt" height="800.000000pt" viewBox="0 0 800.000000 800.000000"
 preserveAspectRatio="xMidYMid meet">

<g transform="translate(0.000000,800.000000) scale(0.100000,-0.100000)"
fill="#000000" stroke="none">
<path d="M4790 5807 c-19 -5 -48 -18 -65 -29 -43 -30 -1662 -1647 -1684 -1683
-23 -37 -35 -104 -26 -147 6 -27 171 -198 858 -886 469 -469 865 -860 882
-869 40 -21 124 -21 158 2 72 47 91 160 38 231 -16 21 -361 370 -766 774 -405
404 -746 747 -757 762 -12 17 -17 36 -13 48 3 11 350 363 769 782 420 420 771
777 780 795 21 42 21 122 -1 153 -37 54 -112 83 -173 67z"/>
</g>
</svg>
