<?xml version="1.0" encoding="UTF-8"?>
<svg version="1.1" xmlns="http://www.w3.org/2000/svg" width="800" height="800">
<path d="M0 0 C6.1979469 3.14977629 9.40734277 6.4095283 11.6328125 13.0859375 C12.45897044 19.83289401 10.09664485 24.47623632 6.6328125 30.0859375 C3.9460925 33.35954622 1.00303089 36.28548683 -2.0546875 39.2109375 C-2.82619141 39.97664063 -3.59769531 40.74234375 -4.39257812 41.53125 C-10.07125419 47.0859375 -10.07125419 47.0859375 -12.3671875 47.0859375 C-12.6971875 48.0759375 -13.0271875 49.0659375 -13.3671875 50.0859375 C-14.0271875 50.0859375 -14.6871875 50.0859375 -15.3671875 50.0859375 C-15.3671875 50.7459375 -15.3671875 51.4059375 -15.3671875 52.0859375 C-16.0271875 52.0859375 -16.6871875 52.0859375 -17.3671875 52.0859375 C-17.6353125 52.7253125 -17.9034375 53.3646875 -18.1796875 54.0234375 C-19.3671875 56.0859375 -19.3671875 56.0859375 -22.3671875 57.0859375 C-22.6971875 58.0759375 -23.0271875 59.0659375 -23.3671875 60.0859375 C-24.0271875 60.0859375 -24.6871875 60.0859375 -25.3671875 60.0859375 C-25.61339844 60.65666992 -25.85960937 61.22740234 -26.11328125 61.81542969 C-27.57617747 64.4643656 -29.29364069 66.27142296 -31.4296875 68.4140625 C-32.22632813 69.21328125 -33.02296875 70.0125 -33.84375 70.8359375 C-34.67648437 71.6609375 -35.50921875 72.4859375 -36.3671875 73.3359375 C-37.61628906 74.59664062 -37.61628906 74.59664062 -38.890625 75.8828125 C-39.68726563 76.676875 -40.48390625 77.4709375 -41.3046875 78.2890625 C-42.03558594 79.01770508 -42.76648438 79.74634766 -43.51953125 80.49707031 C-45.3671875 82.0859375 -45.3671875 82.0859375 -47.3671875 82.0859375 C-47.6971875 83.0759375 -48.0271875 84.0659375 -48.3671875 85.0859375 C-49.0271875 85.0859375 -49.6871875 85.0859375 -50.3671875 85.0859375 C-50.5734375 85.6221875 -50.7796875 86.1584375 -50.9921875 86.7109375 C-52.89969176 90.00571759 -55.41538134 92.67957378 -58.3671875 95.0859375 C-59.0271875 95.0859375 -59.6871875 95.0859375 -60.3671875 95.0859375 C-60.769375 95.983125 -60.769375 95.983125 -61.1796875 96.8984375 C-62.36636156 99.08441604 -63.46317863 100.49926344 -65.3671875 102.0859375 C-66.0271875 102.0859375 -66.6871875 102.0859375 -67.3671875 102.0859375 C-67.5940625 102.6634375 -67.8209375 103.2409375 -68.0546875 103.8359375 C-69.69634857 106.65021363 -71.80277803 108.11331483 -74.3671875 110.0859375 C-74.6971875 110.7459375 -75.0271875 111.4059375 -75.3671875 112.0859375 C-76.0271875 112.0859375 -76.6871875 112.0859375 -77.3671875 112.0859375 C-77.8621875 113.5709375 -77.8621875 113.5709375 -78.3671875 115.0859375 C-80.8046875 117.7734375 -80.8046875 117.7734375 -83.3671875 120.0859375 C-84.0271875 120.0859375 -84.6871875 120.0859375 -85.3671875 120.0859375 C-85.62886719 120.68535156 -85.89054687 121.28476562 -86.16015625 121.90234375 C-87.43938938 124.21655514 -88.62969192 125.38253195 -90.6796875 127.0234375 C-94.79042205 130.4192617 -98.44728404 133.98205335 -101.8671875 138.0859375 C-104.2421773 140.93592526 -106.73196149 143.47702615 -109.3671875 146.0859375 C-110.38515093 147.11355776 -111.40203348 148.1422496 -112.41796875 149.171875 C-117.62774189 154.43238239 -122.83318378 159.59708686 -128.4609375 164.4140625 C-137.33561643 172.16172164 -137.33561643 172.16172164 -143.3671875 182.0859375 C-143.44826431 186.13977797 -142.83353169 187.56777729 -140.1171875 190.5859375 C-139.2096875 191.4109375 -138.3021875 192.2359375 -137.3671875 193.0859375 C-136.6040625 194.0346875 -135.8409375 194.9834375 -135.0546875 195.9609375 C-132.43599813 199.18457726 -129.36617402 201.74538181 -126.2109375 204.4296875 C-123.96992046 206.4428045 -122.23929649 208.73070361 -120.3671875 211.0859375 C-119.27914121 212.04209939 -118.17309758 212.97797611 -117.0546875 213.8984375 C-113.65865698 216.71997892 -110.8504743 219.84719005 -107.9921875 223.203125 C-105.90228003 225.62460433 -103.65818685 227.85522761 -101.3671875 230.0859375 C-96.3671875 235.0859375 -96.3671875 235.0859375 -94.0546875 237.4609375 C-91.9198308 239.54614637 -89.76250261 241.46932581 -87.4921875 243.3984375 C-84.11344562 246.32416371 -81.23779732 249.4443621 -78.34765625 252.84375 C-73.19882982 258.67299334 -67.61363596 264.31691366 -61.6171875 269.2734375 C-58.37567763 271.95660117 -55.71628769 275.00473951 -52.9921875 278.203125 C-50.90228003 280.62460433 -48.65818685 282.85522761 -46.3671875 285.0859375 C-31.3671875 300.0859375 -31.3671875 300.0859375 -29.1796875 302.3359375 C-26.81836405 304.64478709 -24.41067756 306.82977917 -21.9375 309.015625 C-15.88270957 314.45181794 -10.15677624 320.18513496 -4.4296875 325.9609375 C-3.3928171 327.00284204 -2.35570876 328.04450985 -1.31835938 329.0859375 C0.56909627 330.98146577 2.45489616 332.87858558 4.33959961 334.77685547 C5.66635367 336.11279073 7.00402255 337.43841221 8.36938477 338.73486328 C11.80304253 342.40672069 12.17541152 347.8850954 12.09375 352.703125 C11.06889025 358.00112879 7.37388568 362.34486432 3.6328125 366.0859375 C0.42972705 367.17725422 -2.74997821 367.34753408 -6.1171875 367.4609375 C-7.10203125 367.50992187 -8.086875 367.55890625 -9.1015625 367.609375 C-18.30966259 366.13343551 -24.63147131 358.24744795 -30.8671875 351.8984375 C-31.785 350.98384766 -32.7028125 350.06925781 -33.6484375 349.12695312 C-40.3671875 342.35321336 -40.3671875 342.35321336 -40.3671875 340.0859375 C-41.3571875 339.7559375 -42.3471875 339.4259375 -43.3671875 339.0859375 C-43.3671875 338.4259375 -43.3671875 337.7659375 -43.3671875 337.0859375 C-44.0065625 336.8178125 -44.6459375 336.5496875 -45.3046875 336.2734375 C-47.3671875 335.0859375 -47.3671875 335.0859375 -48.3671875 332.0859375 C-49.0271875 331.7559375 -49.6871875 331.4259375 -50.3671875 331.0859375 C-52.3671875 330.0859375 -52.3671875 330.0859375 -53.3671875 327.0859375 C-54.0271875 326.7559375 -54.6871875 326.4259375 -55.3671875 326.0859375 C-57.3671875 325.0859375 -57.3671875 325.0859375 -58.3671875 322.0859375 C-59.69749103 321.41324535 -61.03153762 320.74795082 -62.3671875 320.0859375 C-64.15030641 318.48909259 -65.87905379 316.83096272 -67.57350159 315.14031982 C-68.08524663 314.63240032 -68.59699168 314.12448082 -69.12424415 313.60116982 C-70.83704878 311.89868044 -72.54262416 310.1891304 -74.24829102 308.47949219 C-75.47511807 307.25701245 -76.7023624 306.03495133 -77.92999268 304.8132782 C-81.263165 301.49350583 -84.58989272 298.16734564 -87.9151051 294.83960247 C-90.69165354 292.06198487 -93.47117154 289.28734836 -96.25064987 286.51266313 C-102.80837681 279.9660351 -109.3607558 273.4140878 -115.90991211 266.85888672 C-122.66539282 260.09736672 -129.42999541 253.34507271 -136.19913727 246.59723163 C-142.01100423 240.80298146 -147.81704642 235.00293965 -153.61848396 229.19824719 C-157.08323408 225.731684 -160.55017302 222.26738388 -164.02276802 218.80867767 C-167.28884778 215.55517256 -170.54759052 212.29449263 -173.80085754 209.02817726 C-174.99511088 207.83155772 -176.19192134 206.63748391 -177.39147758 205.44618034 C-179.03064919 203.81747396 -180.66026733 202.1797586 -182.28785706 200.53948975 C-183.20168939 199.62582516 -184.11552172 198.71216057 -185.05704594 197.77080917 C-189.20443348 192.95067022 -190.96316641 188.70899719 -190.7109375 182.4453125 C-188.79808189 169.31616715 -176.64831238 160.22996936 -167.7421875 151.3984375 C-166.70809709 150.36937797 -165.67424148 149.34008243 -164.640625 148.31054688 C-162.74020893 146.41821355 -160.8382115 144.5275254 -158.93505859 142.63793945 C-154.59379279 138.32350216 -150.27176639 133.98981744 -145.94691467 129.65893555 C-144.86084294 128.57139787 -143.77476794 127.48386345 -142.68869019 126.39633179 C-141.82697771 125.53345613 -141.82697771 125.53345613 -140.9478569 124.65314865 C-127.70104275 111.38862227 -114.45134453 98.12697984 -101.20002079 84.86695862 C-93.54287728 77.20465372 -85.88667967 69.54140803 -78.23266602 61.87597656 C-71.54518287 55.17852268 -64.85594044 48.4828318 -58.16458505 41.78924656 C-54.62637162 38.24973118 -51.08903949 34.70934515 -47.55381966 31.1668396 C-44.22929738 27.8355199 -40.90242485 24.50656548 -37.57375145 21.17939377 C-36.35468213 19.96004991 -35.13646608 18.73985227 -33.91918182 17.51872635 C-32.25325116 15.84779714 -30.58423521 14.18000948 -28.91444397 12.51293945 C-27.9825528 11.5801265 -27.05066164 10.64731354 -26.09053135 9.68623352 C-18.79581727 2.72111378 -10.5627371 -4.07868066 0 0 Z " fill="#050505" transform="translate(489.3671875,216.9140625)"/>
<path d="M0 0 C0.33 0 0.66 0 1 0 C1.06316406 0.6290625 1.12632812 1.258125 1.19140625 1.90625 C1.31386719 2.7621875 1.43632812 3.618125 1.5625 4.5 C1.66691406 5.3353125 1.77132813 6.170625 1.87890625 7.03125 C4.58834966 14.20608274 11.73687322 19.88228615 17.1058197 25.22607422 C17.78558682 25.90669576 18.46535393 26.5873173 19.16572005 27.28856373 C21.42183746 29.54631541 23.68148649 31.8004975 25.94116211 34.0546875 C27.56800463 35.68124768 29.19462645 37.30802862 30.82104492 38.93501282 C35.22114664 43.33540067 39.62431813 47.73270504 44.02805781 52.12945175 C48.63561669 56.7307466 53.24033158 61.33488577 57.84535217 65.9387207 C65.56985102 73.66046762 73.29609152 81.38046784 81.02368164 89.09912109 C88.97993752 97.04618527 96.93513298 104.99430851 104.88891602 112.94384766 C105.37993122 113.43460014 105.87094643 113.92535262 106.37684088 114.43097639 C108.84033544 116.89316582 111.30380928 119.35537598 113.76727283 121.81759644 C134.17497201 142.21494414 154.58633022 162.60862774 175 183 C174.01 183.33 173.02 183.66 172 184 C168.86050859 180.90984779 165.72756243 177.81325304 162.60058594 174.71044922 C161.5353174 173.65525491 160.46826303 172.60186036 159.39941406 171.55029297 C157.86573784 170.04080273 156.33854432 168.52501301 154.8125 167.0078125 C153.89082031 166.09660645 152.96914063 165.18540039 152.01953125 164.24658203 C150 162 150 162 150 160 C149.01 159.67 148.02 159.34 147 159 C147 158.34 147 157.68 147 157 C146.360625 156.731875 145.72125 156.46375 145.0625 156.1875 C143 155 143 155 142 152 C141.34 151.67 140.68 151.34 140 151 C138 150 138 150 137 147 C136.34 146.67 135.68 146.34 135 146 C133 145 133 145 132 142 C130.66969647 141.32730785 129.33564988 140.66201332 128 140 C126.21688109 138.40315509 124.48813371 136.74502522 122.79368591 135.05438232 C122.28194087 134.54646282 121.77019582 134.03854332 121.24294335 133.51523232 C119.53013872 131.81274294 117.82456334 130.1031929 116.11889648 128.39355469 C114.89206943 127.17107495 113.6648251 125.94901383 112.43719482 124.7273407 C109.1040225 121.40756833 105.77729478 118.08140814 102.4520824 114.75366497 C99.67553396 111.97604737 96.89601596 109.20141086 94.11653763 106.42672563 C87.55881069 99.8800976 81.0064317 93.3281503 74.45727539 86.77294922 C67.70179468 80.01142922 60.93719209 73.25913521 54.16805023 66.51129413 C48.35618327 60.71704396 42.55014108 54.91700215 36.74870354 49.11230969 C33.28395342 45.6457465 29.81701448 42.18144638 26.34441948 38.72274017 C23.07833972 35.46923506 19.81959698 32.20855513 16.56632996 28.94223976 C15.37207662 27.74562022 14.17526616 26.55154641 12.97570992 25.36024284 C11.33653831 23.73153646 9.70692017 22.0938211 8.07933044 20.45355225 C7.16549811 19.53988766 6.25166578 18.62622307 5.31014156 17.68487167 C1.71713218 13.50903705 -0.44054699 9.69203369 -0.1875 4.125 C-0.16042969 3.34382813 -0.13335937 2.56265625 -0.10546875 1.7578125 C-0.07066406 1.17773438 -0.03585937 0.59765625 0 0 Z " fill="#E2E2E2" transform="translate(299,397)"/>
<path d="M0 0 C0.99 0.495 0.99 0.495 2 1 C-54.43 57.43 -110.86 113.86 -169 172 C-169 165.37918478 -160.90224274 159.83002829 -156.4609375 155.36328125 C-154.43702634 153.34156432 -152.40630089 151.32678778 -150.375 149.3125 C-149.34090959 148.28344047 -148.30705398 147.25414493 -147.2734375 146.22460938 C-145.37302143 144.33227605 -143.471024 142.4415879 -141.56787109 140.55200195 C-137.22660529 136.23756466 -132.90457889 131.90387994 -128.57972717 127.57299805 C-127.49365544 126.48546037 -126.40758044 125.39792595 -125.32150269 124.31039429 C-124.45979021 123.44751863 -124.45979021 123.44751863 -123.5806694 122.56721115 C-110.33385525 109.30268477 -97.08415703 96.04104234 -83.83283329 82.78102112 C-76.17568978 75.11871622 -68.51949217 67.45547053 -60.86547852 59.79003906 C-54.17799537 53.09258518 -47.48875294 46.3968943 -40.79739755 39.70330906 C-37.25918412 36.16379368 -33.72185199 32.62340765 -30.18663216 29.0809021 C-26.86210988 25.7495824 -23.53523735 22.42062798 -20.20656395 19.09345627 C-18.98749463 17.87411241 -17.76927858 16.65391477 -16.55199432 15.43278885 C-14.88606366 13.76185964 -13.21704771 12.09407198 -11.54725647 10.42700195 C-10.6153653 9.494189 -9.68347414 8.56137604 -8.72334385 7.60029602 C-5.91111677 4.91513274 -3.01359742 2.45423709 0 0 Z " fill="#DFDFDF" transform="translate(472,219)"/>
<path d="M0 0 C0 6.6387866 -8.31244652 12.42071241 -12.8125 17 C-13.29243408 17.49306641 -13.77236816 17.98613281 -14.2668457 18.49414062 C-15.47255295 19.7026255 -16.73248761 20.85650623 -18 22 C-18.66 22 -19.32 22 -20 22 C-20.495 23.485 -20.495 23.485 -21 25 C-21.66 25 -22.32 25 -23 25 C-23 25.66 -23 26.32 -23 27 C-23.66 27 -24.32 27 -25 27 C-25.268125 27.639375 -25.53625 28.27875 -25.8125 28.9375 C-27 31 -27 31 -30 32 C-30.33 32.99 -30.66 33.98 -31 35 C-31.66 35 -32.32 35 -33 35 C-33.24621094 35.57073242 -33.49242187 36.14146484 -33.74609375 36.72949219 C-35.20898997 39.3784281 -36.92645319 41.18548546 -39.0625 43.328125 C-39.85914063 44.12734375 -40.65578125 44.9265625 -41.4765625 45.75 C-42.30929687 46.575 -43.14203125 47.4 -44 48.25 C-45.24910156 49.51070313 -45.24910156 49.51070313 -46.5234375 50.796875 C-47.32007813 51.5909375 -48.11671875 52.385 -48.9375 53.203125 C-49.66839844 53.93176758 -50.39929688 54.66041016 -51.15234375 55.41113281 C-53 57 -53 57 -55 57 C-55.33 57.99 -55.66 58.98 -56 60 C-56.66 60 -57.32 60 -58 60 C-58.20625 60.53625 -58.4125 61.0725 -58.625 61.625 C-60.53250426 64.91978009 -63.04819384 67.59363628 -66 70 C-66.66 70 -67.32 70 -68 70 C-68.268125 70.598125 -68.53625 71.19625 -68.8125 71.8125 C-69.99917406 73.99847854 -71.09599113 75.41332594 -73 77 C-73.66 77 -74.32 77 -75 77 C-75.226875 77.5775 -75.45375 78.155 -75.6875 78.75 C-77.33038023 81.5663661 -79.39533227 83.08077114 -82 85 C-82 82 -82 82 -80.2434082 79.90283203 C-79.03430786 78.71729736 -79.03430786 78.71729736 -77.80078125 77.5078125 C-76.92099609 76.63769531 -76.04121094 75.76757812 -75.13476562 74.87109375 C-74.20341797 73.96488281 -73.27207031 73.05867188 -72.3125 72.125 C-71.40048828 71.22652344 -70.48847656 70.32804687 -69.54882812 69.40234375 C-67.83711885 67.71677694 -66.12234846 66.0343091 -64.40356445 64.35595703 C-61.91876856 61.92037751 -59.45727294 59.46334694 -57 57 C-55.82761818 55.82732975 -54.65507898 54.65481684 -53.48242188 53.48242188 C-52.83825317 52.83825317 -52.19408447 52.19408447 -51.53039551 51.53039551 C-27.51757813 27.51757813 -27.51757813 27.51757813 -25.67843628 25.6794281 C-24.20723697 24.20735943 -22.73933265 22.73199925 -21.27197266 21.25610352 C-19.25428451 19.2525084 -17.2066686 17.29924472 -15.1171875 15.37109375 C-14.42496094 14.72849609 -13.73273438 14.08589844 -13.01953125 13.42382812 C-11.58369021 12.09390979 -10.14617384 10.76579805 -8.70703125 9.43945312 C-8.01738281 8.79814453 -7.32773437 8.15683594 -6.6171875 7.49609375 C-5.99440918 6.92044678 -5.37163086 6.3447998 -4.72998047 5.75170898 C-2.94965847 3.94902618 -1.47221514 2.05878763 0 0 Z " fill="#D2D2D2" transform="translate(497,242)"/>
<path d="M0 0 C3.31613882 1.44580966 5.49185728 3.24829792 8.03417969 5.80712891 C9.20494049 6.9781163 9.20494049 6.9781163 10.39935303 8.17276001 C11.23178528 9.01551483 12.06421753 9.85826965 12.921875 10.7265625 C13.78186096 11.58937836 14.64184692 12.45219421 15.52789307 13.34115601 C18.2733231 16.09778029 21.0117169 18.86127799 23.75 21.625 C25.61021783 23.49524857 27.47088946 25.36504589 29.33203125 27.234375 C33.89329945 31.8176936 38.44881011 36.40667478 43 41 C42.01 41.33 41.02 41.66 40 42 C36.86050859 38.90984779 33.72756243 35.81325304 30.60058594 32.71044922 C29.5353174 31.65525491 28.46826303 30.60186036 27.39941406 29.55029297 C25.86573784 28.04080273 24.33854432 26.52501301 22.8125 25.0078125 C21.42998047 23.64100342 21.42998047 23.64100342 20.01953125 22.24658203 C18 20 18 20 18 18 C17.01 17.67 16.02 17.34 15 17 C15 16.34 15 15.68 15 15 C14.360625 14.731875 13.72125 14.46375 13.0625 14.1875 C11 13 11 13 10 10 C9.34 9.67 8.68 9.34 8 9 C6 8 6 8 5 5 C4.34 4.67 3.68 4.34 3 4 C1 3 1 3 0 0 Z " fill="#D6D6D6" transform="translate(431,539)"/>
<path d="M0 0 C0 6.6387866 -8.31244652 12.42071241 -12.8125 17 C-13.29243408 17.49306641 -13.77236816 17.98613281 -14.2668457 18.49414062 C-15.47255295 19.7026255 -16.73248761 20.85650623 -18 22 C-18.66 22 -19.32 22 -20 22 C-20.33 22.99 -20.66 23.98 -21 25 C-21.99 24.67 -22.98 24.34 -24 24 C-19.06188892 18.97474579 -13.88696338 14.21339057 -8.70703125 9.43945312 C-8.01738281 8.79814453 -7.32773437 8.15683594 -6.6171875 7.49609375 C-5.99440918 6.92044678 -5.37163086 6.3447998 -4.72998047 5.75170898 C-2.94965847 3.94902618 -1.47221514 2.05878763 0 0 Z " fill="#E4E4E4" transform="translate(497,242)"/>
<path d="M0 0 C0 3 0 3 -1 4.8125 C-2.28839078 7.63085484 -2.13918975 9.9378255 -2 13 C-3.65 11.68 -5.3 10.36 -7 9 C-5.44499019 5.18315774 -2.96404505 2.80804268 0 0 Z " fill="#FFFFFF" transform="translate(348,392)"/>
<path d="M0 0 C0 3 0 3 -1.53125 4.82421875 C-2.1809375 5.43910156 -2.830625 6.05398438 -3.5 6.6875 C-4.1496875 7.31011719 -4.799375 7.93273437 -5.46875 8.57421875 C-5.9740625 9.04472656 -6.479375 9.51523437 -7 10 C-7.99 9.67 -8.98 9.34 -10 9 C-8.89902432 7.87187697 -7.79408444 6.74762189 -6.6875 5.625 C-6.07261719 4.99851562 -5.45773437 4.37203125 -4.82421875 3.7265625 C-3 2 -3 2 0 0 Z " fill="#D9D9D9" transform="translate(438,302)"/>
</svg>
