<?xml version="1.0" encoding="UTF-8"?>
<svg version="1.1" xmlns="http://www.w3.org/2000/svg" width="800" height="800">
<path d="M0 0 C6.12039318 3.29320648 11.21615735 7.41202821 15.72311401 12.70039368 C19.56931521 17.12639954 23.64621302 21.2761917 27.80126953 25.41088867 C28.59405304 26.20381821 29.38683655 26.99674774 30.2036438 27.81370544 C32.80136563 30.41073573 35.40260321 33.0042135 38.00390625 35.59765625 C39.82060286 37.41248512 41.63707683 39.22753687 43.45333862 41.0428009 C47.73417607 45.32022172 52.01722928 49.59541189 56.30139053 53.86950332 C61.16251811 58.71945048 66.02080695 63.57223698 70.87885308 68.42527044 C79.18717682 76.72492751 87.49758726 85.02249079 95.8104248 93.31762695 C96.49714264 94.00289963 97.18386047 94.6881723 97.89138794 95.39421082 C98.85286271 96.35358394 98.85286271 96.35358394 99.83376122 97.33233833 C101.26893586 98.76544665 102.70218647 100.20048147 104.13494873 101.63600159 C107.18346582 104.678281 110.25191334 107.69997101 113.32080078 110.72167969 C120.03097735 117.33374406 126.72580002 123.96113792 133.41211128 130.597332 C137.45162178 134.60549146 141.49656808 138.60783556 145.55419922 142.59765625 C149.48946949 146.46760085 153.40977759 150.35214187 157.32027817 154.24710846 C158.80852173 155.72430411 160.30201869 157.19622724 161.80090714 158.66262054 C163.89995987 160.71792762 165.97928573 162.79145308 168.05517578 164.87011719 C168.67238495 165.4657547 169.28959412 166.06139221 169.92550659 166.67507935 C175.1094006 171.93410891 177.17757286 177.37148553 177.93359375 184.6796875 C177.32874881 190.12329197 175.29120805 194.99749805 171.55859375 199.0546875 C170.89859375 199.0546875 170.23859375 199.0546875 169.55859375 199.0546875 C169.55859375 199.7146875 169.55859375 200.3746875 169.55859375 201.0546875 C168.29500484 202.29938793 168.29500484 202.29938793 166.42332458 203.82304382 C159.83551578 209.43320655 153.83219821 215.64162971 147.72290039 221.76098633 C146.33440452 223.14812545 144.94569637 224.53505212 143.55679321 225.92178345 C139.80498437 229.66905312 136.05632163 233.41945507 132.30837178 237.17058396 C128.38257275 241.09892176 124.45432658 245.02481128 120.526474 248.95109558 C113.93862035 255.53713325 107.35287097 262.12526957 100.76831055 268.71459961 C93.1492696 276.33909564 85.52661457 283.95996423 77.90209872 291.57898504 C71.35321523 298.12333726 64.80627401 304.66962772 58.26096624 311.21755618 C54.35248855 315.12759483 50.44333365 319.03694997 46.53242683 322.9445591 C42.86201194 326.61209464 39.19403414 330.28204994 35.52795792 333.95392227 C34.17953464 335.30367222 32.83025149 336.65256375 31.4800663 338.00055122 C29.64370366 339.83419909 27.8104207 341.67087037 25.97792053 343.50837708 C25.43766662 344.04640026 24.89741271 344.58442345 24.34078747 345.13875037 C21.60952146 347.84004536 21.60952146 347.84004536 19.55859375 351.0546875 C18.89859375 351.0546875 18.23859375 351.0546875 17.55859375 351.0546875 C17.22859375 352.0446875 16.89859375 353.0346875 16.55859375 354.0546875 C15.89859375 354.0546875 15.23859375 354.0546875 14.55859375 354.0546875 C14.55859375 354.7146875 14.55859375 355.3746875 14.55859375 356.0546875 C8.53158088 362.41044653 1.56224319 367.73876998 -7.44140625 368.0546875 C-12.32799549 367.2923061 -17.42617581 366.17067946 -20.92578125 362.49609375 C-24.76346682 356.79878894 -25.60363249 351.82961609 -24.44140625 345.0546875 C-21.30565758 335.70269697 -14.76407074 328.66883859 -7.21484375 322.57421875 C-4.82787699 320.52899833 -2.65337445 318.28511824 -0.44140625 316.0546875 C0.5189856 315.08700691 0.5189856 315.08700691 1.4987793 314.09977722 C3.00603762 312.58073287 4.51307751 311.06147177 6.01994324 309.54203796 C9.50590391 306.02943736 12.99704934 302.52201004 16.48852539 299.01489258 C18.33405183 297.15923576 20.17778979 295.30179858 22.01977539 293.44262695 C24.67780842 290.76047084 27.3421282 288.0847054 30.0078125 285.41015625 C30.83488205 284.57276413 31.6619516 283.73537201 32.51408386 282.87260437 C33.27860367 282.1079335 34.04312347 281.34326263 34.83081055 280.55541992 C35.50411911 279.87767014 36.17742767 279.19992035 36.87113953 278.50163269 C38.55859375 277.0546875 38.55859375 277.0546875 40.55859375 277.0546875 C40.95824341 276.16608032 40.95824341 276.16608032 41.3659668 275.25952148 C42.58304593 273.00948225 43.82159003 271.56137138 45.640625 269.77734375 C46.24326172 269.18115234 46.84589844 268.58496094 47.46679688 267.97070312 C48.09521484 267.35904297 48.72363281 266.74738281 49.37109375 266.1171875 C49.98791016 265.50939453 50.60472656 264.90160156 51.24023438 264.27539062 C53.00995375 262.53200076 54.78382102 260.79293062 56.55859375 259.0546875 C59.14630152 256.51010819 61.51838214 254.10638814 63.74609375 251.2421875 C64.34421875 250.5203125 64.94234375 249.7984375 65.55859375 249.0546875 C66.21859375 249.0546875 66.87859375 249.0546875 67.55859375 249.0546875 C67.55859375 248.3946875 67.55859375 247.7346875 67.55859375 247.0546875 C73.03478423 242.0546875 73.03478423 242.0546875 75.55859375 242.0546875 C75.82671875 241.4153125 76.09484375 240.7759375 76.37109375 240.1171875 C77.55859375 238.0546875 77.55859375 238.0546875 80.55859375 237.0546875 C80.88859375 236.3946875 81.21859375 235.7346875 81.55859375 235.0546875 C82.55859375 233.0546875 82.55859375 233.0546875 85.55859375 232.0546875 C85.88859375 231.3946875 86.21859375 230.7346875 86.55859375 230.0546875 C87.55859375 228.0546875 87.55859375 228.0546875 90.55859375 227.0546875 C90.82671875 226.4978125 91.09484375 225.9409375 91.37109375 225.3671875 C93.09143675 222.01704587 95.64434663 219.43043243 98.55859375 217.0546875 C99.21859375 217.0546875 99.87859375 217.0546875 100.55859375 217.0546875 C100.77515625 216.51328125 100.99171875 215.971875 101.21484375 215.4140625 C103.02359372 212.23823406 105.47583174 209.84740669 108.05859375 207.3046875 C108.55746094 206.79808594 109.05632812 206.29148437 109.5703125 205.76953125 C113.30518236 202.0546875 113.30518236 202.0546875 115.55859375 202.0546875 C115.76226562 201.51457031 115.9659375 200.97445312 116.17578125 200.41796875 C118.45289249 196.52629559 122.02688862 193.69986055 125.390625 190.74023438 C125.92300781 190.23943359 126.45539063 189.73863281 127.00390625 189.22265625 C127.49391113 188.78203857 127.98391602 188.3414209 128.48876953 187.88745117 C130.27210866 184.83233322 129.94668566 182.52814838 129.55859375 179.0546875 C127.71926381 176.54771066 126.05694012 174.64672401 123.84623718 172.52073669 C122.92448762 171.59319072 122.92448762 171.59319072 121.98411685 170.64690644 C119.92060426 168.57888847 117.83311177 166.53692107 115.74487305 164.49389648 C114.26055216 163.01646142 112.77779083 161.53745811 111.29647827 160.05700684 C108.10299182 156.87209503 104.89874082 153.69857224 101.68570518 150.53338432 C96.60569392 145.52888288 91.55030852 140.49999096 86.4980011 135.46754456 C78.50377002 127.51057738 70.49314745 119.57034574 62.47544748 111.63703352 C48.11874802 97.4308338 33.78519806 83.20132534 19.46483546 68.95850235 C14.43771816 63.96003727 9.40194296 58.97050758 4.35894239 53.98806942 C1.22296321 50.88721209 -1.9069642 47.78029803 -5.03546524 44.67189789 C-6.4876715 43.23169836 -7.94249194 41.79412932 -9.40010262 40.3593998 C-11.38974493 38.40037708 -13.36992046 36.43224303 -15.34809875 34.46165466 C-15.92689342 33.89637336 -16.50568809 33.33109205 -17.10202199 32.74868101 C-21.04069241 28.79774771 -24.02400799 24.96829102 -24.83984375 19.2734375 C-24.79290225 13.82822382 -24.69315153 9.65198254 -21.44140625 5.0546875 C-15.17358609 -0.73099265 -8.28772554 -3.20900733 0 0 Z " fill="#030303" transform="translate(323.44140625,216.9453125)"/>
<path d="M0 0 C1 3 1 3 0.875 6.8125 C0.80016109 10.87625292 1.97464916 13.45563604 4 17 C4 17.66 4 18.32 4 19 C4.66 19 5.32 19 6 19 C7.20614806 20.44067685 8.40773399 21.88559534 9.578125 23.35546875 C11.14733488 25.26038608 11.14733488 25.26038608 14 27.5 C17.10446403 30.08705336 19.42534724 32.89721334 22 36 C22.928125 36.7425 23.85625 37.485 24.8125 38.25 C25.534375 38.8275 26.25625 39.405 27 40 C27 40.66 27 41.32 27 42 C27.66 42 28.32 42 29 42 C30.625 43.375 30.625 43.375 32 45 C32 45.66 32 46.32 32 47 C32.66 47 33.32 47 34 47 C34 47.66 34 48.32 34 49 C34.66 49 35.32 49 36 49 C36 49.66 36 50.32 36 51 C36.66 51 37.32 51 38 51 C38 51.66 38 52.32 38 53 C38.99 53.33 39.98 53.66 41 54 C41.556875 54.70125 42.11375 55.4025 42.6875 56.125 C44.59315619 58.49419418 46.28492132 60.18339445 48.57788086 62.12133789 C53.2828793 66.19023303 57.67511288 70.53104604 62.06640625 74.93359375 C63.32299294 76.18874535 63.32299294 76.18874535 64.60496521 77.46925354 C66.36506935 79.22868104 68.12392677 80.98935653 69.8815918 82.7512207 C72.55470972 85.42969411 75.23312251 88.10278873 77.91210938 90.77539062 C79.63052903 92.49447115 81.34863842 94.21386189 83.06640625 95.93359375 C83.85825821 96.72342148 84.65011017 97.51324921 85.46595764 98.32701111 C88.82275016 101.69782845 92.11094678 105.07459638 95.1953125 108.69750977 C100.71212188 115.09665382 106.82583296 120.94817514 112.80859375 126.90625 C114.14402327 128.2398113 115.47922985 129.57359588 116.81422424 130.90759277 C120.30539128 134.39496648 123.79955234 137.8793249 127.29437256 141.36303711 C130.86930632 144.92768783 134.44136294 148.49521917 138.01367188 152.0625 C145.00632174 159.04446878 152.00214201 166.02325147 159 173 C157.37126686 177.12139268 154.39299804 179.87712066 151.30183411 182.9319458 C150.41850663 183.8167782 150.41850663 183.8167782 149.51733416 184.719486 C147.54076778 186.69700576 145.55713852 188.66728531 143.57348633 190.63769531 C142.15555917 192.05342138 140.73807936 193.46959561 139.3210144 194.88618469 C136.26661039 197.93765331 133.2090734 200.9859355 130.14908791 204.03180695 C125.30704793 208.85158643 120.47210044 213.67843852 115.6381073 218.50628662 C107.98627879 226.14672654 100.32979566 233.78248249 92.67127866 241.41621757 C78.9711192 255.07211228 65.27644004 268.73349712 51.58705729 282.40019488 C46.78464092 287.19422247 41.97942992 291.98542592 37.17192709 296.77435255 C34.17420381 299.76139411 31.17854196 302.75049684 28.18337631 305.74010277 C26.79880173 307.12122151 25.41335691 308.50146849 24.02695656 309.88075447 C11.49019679 322.0801116 11.49019679 322.0801116 1 336 C0.505 334.515 0.505 334.515 0 333 C3.80602783 325.48810298 9.66823855 318.86900401 16.15625 313.58984375 C18.56210302 311.51530523 20.76447024 309.25421778 23 307 C23.64017059 306.35497025 24.28034119 305.70994049 24.93991089 305.04536438 C26.44726115 303.52622886 27.95439259 302.0068762 29.46134949 300.48735046 C32.94731016 296.97474986 36.43845559 293.46732254 39.92993164 289.96020508 C41.77545808 288.10454826 43.61919604 286.24711108 45.46118164 284.38793945 C48.11921467 281.70578334 50.78353445 279.0300179 53.44921875 276.35546875 C54.2762883 275.51807663 55.10335785 274.68068451 55.95549011 273.81791687 C56.72000992 273.053246 57.48452972 272.28857513 58.2722168 271.50073242 C58.94552536 270.82298264 59.61883392 270.14523285 60.31254578 269.44694519 C62 268 62 268 64 268 C64.39964966 267.11139282 64.39964966 267.11139282 64.80737305 266.20483398 C66.02445218 263.95479475 67.26299628 262.50668388 69.08203125 260.72265625 C69.68466797 260.12646484 70.28730469 259.53027344 70.90820312 258.91601562 C71.53662109 258.30435547 72.16503906 257.69269531 72.8125 257.0625 C73.42931641 256.45470703 74.04613281 255.84691406 74.68164062 255.22070312 C76.45136 253.47731326 78.22522727 251.73824312 80 250 C82.58770777 247.45542069 84.95978839 245.05170064 87.1875 242.1875 C87.785625 241.465625 88.38375 240.74375 89 240 C89.66 240 90.32 240 91 240 C91 239.34 91 238.68 91 238 C96.47619048 233 96.47619048 233 99 233 C99.268125 232.360625 99.53625 231.72125 99.8125 231.0625 C101 229 101 229 104 228 C104.33 227.34 104.66 226.68 105 226 C106 224 106 224 109 223 C109.33 222.34 109.66 221.68 110 221 C111 219 111 219 114 218 C114.268125 217.443125 114.53625 216.88625 114.8125 216.3125 C116.532843 212.96235837 119.08575288 210.37574493 122 208 C122.66 208 123.32 208 124 208 C124.2165625 207.45859375 124.433125 206.9171875 124.65625 206.359375 C126.46499997 203.18354656 128.91723799 200.79271919 131.5 198.25 C131.99886719 197.74339844 132.49773437 197.23679687 133.01171875 196.71484375 C136.74658861 193 136.74658861 193 139 193 C139.20367187 192.45988281 139.40734375 191.91976562 139.6171875 191.36328125 C141.89429874 187.47160809 145.46829487 184.64517305 148.83203125 181.68554688 C149.36441406 181.18474609 149.89679688 180.68394531 150.4453125 180.16796875 C150.93531738 179.72735107 151.42532227 179.2867334 151.93017578 178.83276367 C153.71351491 175.77764572 153.38809191 173.47346088 153 170 C151.16067006 167.49302316 149.49834637 165.59203651 147.28764343 163.46604919 C146.36589387 162.53850322 146.36589387 162.53850322 145.4255231 161.59221894 C143.36201051 159.52420097 141.27451802 157.48223357 139.1862793 155.43920898 C137.70195841 153.96177392 136.21919708 152.48277061 134.73788452 151.00231934 C131.54439807 147.81740753 128.34014707 144.64388474 125.12711143 141.47869682 C120.04710017 136.47419538 114.99171477 131.44530346 109.93940735 126.41285706 C101.94517627 118.45588988 93.9345537 110.51565824 85.91685373 102.58234602 C71.56015427 88.3761463 57.22660431 74.14663784 42.90624171 59.90381485 C37.87912441 54.90534977 32.84334921 49.91582008 27.80034864 44.93338192 C24.66436946 41.83252459 21.53444205 38.72561053 18.40594101 35.61721039 C16.95373475 34.17701086 15.49891431 32.73944182 14.04130363 31.3047123 C12.05166132 29.34568958 10.07148579 27.37755553 8.0933075 25.40696716 C7.51451283 24.84168586 6.93571816 24.27640455 6.33938426 23.69399351 C2.36242681 19.70465398 -0.67802791 15.86708479 -1.328125 10.078125 C-1.30234375 9.14484375 -1.2765625 8.2115625 -1.25 7.25 C-1.23453125 6.30640625 -1.2190625 5.3628125 -1.203125 4.390625 C-1 2 -1 2 0 0 Z " fill="#F4F4F4" transform="translate(300,226)"/>
<path d="M0 0 C0.33 0 0.66 0 1 0 C1.39920504 6.52034901 -0.05304797 10.96275484 -3.5625 16.4375 C-4.036875 16.953125 -4.51125 17.46875 -5 18 C-5.66 18 -6.32 18 -7 18 C-7 18.66 -7 19.32 -7 20 C-8.26358891 21.24470043 -8.26358891 21.24470043 -10.13526917 22.76835632 C-16.72307797 28.37851905 -22.72639554 34.58694221 -28.83569336 40.70629883 C-30.22418923 42.09343795 -31.61289738 43.48036462 -33.00180054 44.86709595 C-36.75360938 48.61436562 -40.50227212 52.36476757 -44.25022197 56.11589646 C-48.176021 60.04423426 -52.10426717 63.97012378 -56.03211975 67.89640808 C-62.6199734 74.48244575 -69.20572278 81.07058207 -75.7902832 87.65991211 C-83.40932415 95.28440814 -91.03197918 102.90527673 -98.65649503 110.52429754 C-105.20537852 117.06864976 -111.75231974 123.61494022 -118.29762751 130.16286868 C-122.2061052 134.07290733 -126.1152601 137.98226247 -130.02616692 141.8898716 C-133.69658181 145.55740714 -137.36455961 149.22736244 -141.03063583 152.89923477 C-142.37905911 154.24898472 -143.72834226 155.59787625 -145.07852745 156.94586372 C-146.91489009 158.77951159 -148.74817305 160.61618287 -150.58067322 162.45368958 C-151.12092713 162.99171276 -151.66118104 163.52973595 -152.21780628 164.08406287 C-154.94907229 166.78535786 -154.94907229 166.78535786 -157 170 C-157.66 170 -158.32 170 -159 170 C-159.33 170.99 -159.66 171.98 -160 173 C-160.66 173 -161.32 173 -162 173 C-162 173.66 -162 174.32 -162 175 C-168.02701287 181.35575903 -174.99635056 186.68408248 -184 187 C-188.88658924 186.2376186 -193.98476956 185.11599196 -197.484375 181.44140625 C-201.3745744 175.6661411 -201.56594346 170.84162756 -201 164 C-200.67 164 -200.34 164 -200 164 C-199.96261719 164.58007812 -199.92523438 165.16015625 -199.88671875 165.7578125 C-199.34890879 172.14826023 -198.39165229 176.84167964 -193.4375 181.3125 C-190.09169024 183.62882983 -188.28285954 184.17667528 -184.25 184.25 C-183.40953125 184.27578125 -182.5690625 184.3015625 -181.703125 184.328125 C-174.77863138 183.48757953 -170.50690994 178.93648156 -165.83807373 174.21902466 C-165.14015441 173.52578531 -164.44223509 172.83254596 -163.7231667 172.11829937 C-161.38996758 169.79705171 -159.06762125 167.4652456 -156.74511719 165.13330078 C-155.07324303 163.4654922 -153.40073144 161.7983224 -151.72763062 160.13174438 C-147.18789209 155.60568575 -142.6576985 151.07018456 -138.12955379 146.53253031 C-135.3013377 143.69898049 -132.4699551 140.8686042 -129.63767242 138.03911972 C-129.1672514 137.56915839 -128.69683037 137.09919707 -128.21215416 136.61499449 C-127.25645153 135.66025104 -126.30074217 134.70551432 -125.34502617 133.75078426 C-116.38838075 124.80268898 -107.44094593 115.84542921 -98.4966425 106.8849995 C-90.82262145 99.19757124 -83.1407627 91.51804867 -75.453125 83.84423828 C-66.52282983 74.92999804 -57.59742197 66.01091086 -48.67975736 57.08403385 C-47.72886603 56.13218688 -46.77796844 55.18034618 -45.82706451 54.22851181 C-45.35921712 53.76020159 -44.89136972 53.29189137 -44.40934514 52.80938993 C-41.11278288 49.51023785 -37.81268692 46.21465916 -34.51137543 42.92026138 C-30.06901915 38.48655923 -25.63404341 34.04560522 -21.20470047 29.59890366 C-19.57624632 27.96647665 -17.94522252 26.3366085 -16.31148148 24.70947266 C-14.08531793 22.49148248 -11.86856327 20.26449821 -9.6539917 18.03494263 C-8.67667749 17.06766666 -8.67667749 17.06766666 -7.67961955 16.08084977 C-2.72159492 11.05735594 -0.98314999 7.04590825 0 0 Z " fill="#E2E2E2" transform="translate(500,398)"/>
<path d="M0 0 C5.01974373 2.23099721 8.62067767 5.47474641 12.14784241 9.62121582 C16.02260092 14.08552747 20.13333634 18.26716865 24.32202148 22.43554688 C25.52324394 23.63698837 25.52324394 23.63698837 26.74873352 24.86270142 C29.37048772 27.4837644 31.99575562 30.10127722 34.62109375 32.71875 C36.44976813 34.54555739 38.27822044 36.37258712 40.10646057 38.1998291 C44.41096186 42.50091512 48.71768034 46.79976911 53.02550608 51.09752512 C57.93446225 55.99525807 62.8405391 60.89587099 67.74639022 65.79671383 C77.82775267 75.86765692 87.9126803 85.93502403 98 96 C97.67 96.66 97.34 97.32 97 98 C84.34974382 85.37306976 71.70232613 72.74330381 59.05831146 60.11012363 C53.18785226 54.24482804 47.31645623 48.38047593 41.44287109 42.51831055 C36.32544867 37.41083298 31.20976677 32.30161972 26.09619665 27.19028515 C23.38674944 24.48214538 20.67641887 21.77490278 17.96400452 19.06973457 C15.41416481 16.52665197 12.86664824 13.98126584 10.32094002 11.4340477 C8.93422187 10.04773844 7.54501085 8.66392421 6.15574646 7.28016663 C5.33957352 6.46261902 4.52340057 5.64507141 3.68249512 4.80274963 C2.96718376 4.08836007 2.25187241 3.37397051 1.51488495 2.63793278 C0 1 0 1 0 0 Z " fill="#C9C9C9" transform="translate(327,220)"/>
</svg>
