<?xml version="1.0" standalone="no"?>
<!DOCTYPE svg PUBLIC "-//W3C//DTD SVG 20010904//EN"
 "http://www.w3.org/TR/2001/REC-SVG-20010904/DTD/svg10.dtd">
<svg version="1.0" xmlns="http://www.w3.org/2000/svg"
 width="800.000000pt" height="800.000000pt" viewBox="0 0 800.000000 800.000000"
 preserveAspectRatio="xMidYMid meet">

<g transform="translate(0.000000,800.000000) scale(0.100000,-0.100000)"
fill="#000000" stroke="none">
<path d="M3090 5798 c-35 -18 -50 -34 -68 -72 -22 -45 -23 -53 -12 -95 12 -42
73 -106 796 -831 431 -432 784 -792 784 -800 0 -8 -351 -366 -779 -795 -826
-827 -801 -799 -801 -889 0 -65 60 -127 137 -142 77 -15 58 -32 957 865 494
493 854 859 862 878 20 46 18 122 -5 158 -10 17 -399 410 -863 875 -731 732
-849 847 -886 858 -57 17 -71 15 -122 -10z"/>
</g>
</svg>
